<?xml version="1.0" encoding="UTF-8" standalone="no"?>
<!-- This favicon was generated using the following font: -->
<!-- - Font Title: Pacifico -->
<!-- - Font Author: Copyright 2018 The Pacifico Project Authors (https://github.com/googlefonts/Pacifico) -->
<!-- - Font Source: http://fonts.gstatic.com/s/pacifico/v22/FwZY7-Qmy14u9lezJ96A4sijpFu_.ttf -->
<!-- - Font License: SIL Open Font License, 1.1 (http://scripts.sil.org/OFL)) -->
<svg
   version="1.1"
   id="svg2"
   width="512"
   height="512"
   viewBox="0 0 512 512"
   sodipodi:docname="logo.svg"
   inkscape:version="1.2.2 (b0a8486541, 2022-12-01)"
   xmlns:inkscape="http://www.inkscape.org/namespaces/inkscape"
   xmlns:sodipodi="http://sodipodi.sourceforge.net/DTD/sodipodi-0.dtd"
   xmlns="http://www.w3.org/2000/svg"
   xmlns:svg="http://www.w3.org/2000/svg">
  <defs
     id="defs6" />
  <sodipodi:namedview
     id="namedview4"
     pagecolor="#ffffff"
     bordercolor="#000000"
     borderopacity="0.25"
     inkscape:showpageshadow="2"
     inkscape:pageopacity="0.0"
     inkscape:pagecheckerboard="0"
     inkscape:deskcolor="#d1d1d1"
     showgrid="false"
     inkscape:zoom="2.0058594"
     inkscape:cx="232.31938"
     inkscape:cy="305.60467"
     inkscape:window-width="3840"
     inkscape:window-height="2091"
     inkscape:window-x="0"
     inkscape:window-y="32"
     inkscape:window-maximized="1"
     inkscape:current-layer="g8" />
  <g
     inkscape:groupmode="layer"
     inkscape:label="Image"
     id="g8">
    <g
       id="g288">
      <rect
         style="fill:#ffffff;stroke-width:1.01622"
         id="rect230"
         width="512"
         height="512"
         x="0"
         y="0"
         ry="62.791641" />
      <path
         style="fill:#229ced"
         d="m 210.5,477.41852 c -21.87577,-4.80913 -39.03031,-20.39353 -43.42059,-39.44633 -1.51404,-6.57056 -1.29877,-21.9945 0.42333,-30.33172 6.74424,-32.65097 33.40332,-60.4577 80.58459,-84.0537 13.51409,-6.75858 42.67955,-18.82973 55.73398,-23.06747 2.92673,-0.95007 5.51073,-2.24308 5.74222,-2.87335 0.69891,-1.90283 9.43945,-64.70981 9.39757,-67.52822 -0.0266,-1.78795 -2.16621,1.66717 -6.75,10.89996 -14.20266,28.6074 -29.18477,46.4188 -49.70238,59.08842 C 246.01264,310.29243 229.09013,314.59856 209,313.722 183.16962,312.595 165.31532,301.6214 154.94701,280.5 c -5.61961,-11.44777 -7.08601,-17.95505 -7.67389,-34.05354 -0.71907,-19.69101 0.7322,-29.34306 12.6788,-84.32411 C 167.39669,127.85979 170,111.59375 170,99.339837 c 0,-14.76055 -2.40898,-19.200329 -11.32553,-20.873085 -5.39403,-1.011926 -15.83356,2.57152 -24.93965,8.560719 -9.26085,6.090993 -21.6817,18.172799 -31.10038,30.251449 -3.765085,4.82841 -8.125751,9.44091 -9.690366,10.25 -4.703238,2.43214 -9.414612,1.87485 -13.348222,-1.5789 C 67.510703,115.33911 74.986158,93.786269 99.737134,67.879712 114.57075,52.353545 133.90276,40.43097 151.43868,35.993978 c 30.77416,-7.78657 56.03019,0.143965 66.4981,20.880777 4.7955,9.499829 6.25277,17.538728 6.20271,34.21653 -0.0658,21.931505 -2.5898,38.812175 -12.24688,81.908715 -2.773,12.375 -6.13446,27.45 -7.46993,33.5 -4.63315,20.98929 -4.2468,37.99335 1.10311,48.55089 4.26269,8.41201 11.99623,11.9725 25.88314,11.91646 14.43202,-0.0582 24.70039,-5.23353 39.61738,-19.96735 31.7012,-31.31191 55.32474,-94.82754 65.46018,-176 3.47771,-27.852214 9.39824,-36.268337 26.52389,-37.704089 12.26156,-1.027966 21.43842,2.838859 26.02917,10.967833 5.38701,9.538928 4.89971,13.830046 -22.65546,199.505306 -3.12362,21.04798 -5.39997,38.5484 -5.05855,38.88983 0.34143,0.34142 8.17036,-1.23471 17.39762,-3.50252 27.52513,-6.76492 45.29723,-10.17673 49.50534,-9.50383 14.84542,2.37388 13.83878,32.45435 -1.27769,38.17976 -1.40205,0.53103 -8.60205,2.17044 -16,3.64314 -24.59075,4.89522 -54.42206,11.67078 -55.5668,12.62083 -0.62122,0.51557 -1.43352,3.74232 -1.80511,7.17057 -1.42361,13.13398 -7.75325,41.2912 -12.55983,55.87207 -5.99023,18.17151 -13.82246,34.51715 -22.14698,46.22015 -6.46974,9.09544 -20.27164,23.08211 -28.04774,28.4232 -7.447,5.11505 -19.88708,10.94781 -29.47113,13.81808 -7.8004,2.3361 -10.93432,2.69336 -26.35322,3.00423 -13.14045,0.26493 -19.24382,-0.0305 -24.5,-1.18604 z m 36.64398,-37.86147 c 21.11505,-4.47545 35.62663,-20.71393 45.85576,-51.31269 6.13662,-18.35668 11.67727,-47.08988 9.35691,-48.52394 -1.25113,-0.77324 -23.38684,8.15999 -36.61663,14.77725 -24.16143,12.08503 -41.11288,26.38437 -48.14471,40.6123 -8.81558,17.83712 -6.51229,35.07216 5.59655,41.8777 7.425,4.17309 13.37469,4.81132 23.95212,2.56938 z"
         id="path176" />
    </g>
  </g>
</svg>
